<?xml version="1.0" encoding="utf-8"?>
<!-- Generator: Adobe Illustrator 16.0.0, SVG Export Plug-In . SVG Version: 6.00 Build 0)  -->
<!DOCTYPE svg PUBLIC "-//W3C//DTD SVG 1.1//EN" "http://www.w3.org/Graphics/SVG/1.1/DTD/svg11.dtd">
<svg version="1.1" id="Layer_1" xmlns="http://www.w3.org/2000/svg" xmlns:xlink="http://www.w3.org/1999/xlink" x="0px" y="0px"
	 width="612px" height="612px" viewBox="0 0 612 612" enable-background="new 0 0 612 612" xml:space="preserve">
<g id="Layer_11" display="none">
	<rect x="0" display="inline" stroke="#FFFFFF" stroke-miterlimit="10" width="612" height="612"/>
</g>
<g id="BttomPlayer" display="none">
	<g id="Play" display="inline">
		<g id="Layer_2">
			<g>
				<path d="M109.533,589.207c-4.397,0-8.795-1.126-12.746-3.381c-8.021-4.576-12.972-13.104-12.972-22.336V49.156
					c0-9.234,4.95-17.76,12.972-22.336c8.019-4.576,17.878-4.503,25.827,0.196l435.207,257.167
					c7.829,4.627,12.636,13.045,12.636,22.14c0,9.095-4.807,17.514-12.636,22.141L122.616,585.631
					C118.583,588.013,114.058,589.207,109.533,589.207z M135.25,94.223v424.199l358.938-212.099L135.25,94.223z"/>
			</g>
			<polygon fill="#FFFFFF" stroke="#000000" stroke-width="26" stroke-linejoin="round" stroke-miterlimit="10" points="
				-290.917,436 -290.917,176 -70.917,306 			"/>
			<polygon points="109,65 109,553 531,306 			"/>
		</g>
	</g>
	<g id="Pause" display="inline">
		<g>
			<g>
				<line fill="none" x1="237.164" y1="94.871" x2="237.164" y2="511.611"/>
				<path d="M237.164,532.448c-16.509,0-29.892-9.329-29.892-20.837V94.871c0-11.508,13.383-20.837,29.892-20.837
					c16.508,0,29.891,9.329,29.891,20.837v416.74C267.055,523.119,253.672,532.448,237.164,532.448z"/>
			</g>
			<g>
				<line fill="none" x1="393.108" y1="94.871" x2="393.108" y2="511.611"/>
				<path d="M393.108,532.448c-16.508,0-29.891-9.329-29.891-20.837V94.871c0-11.508,13.383-20.837,29.891-20.837
					c16.509,0,29.893,9.329,29.893,20.837v416.74C423,523.119,409.616,532.448,393.108,532.448z"/>
			</g>
		</g>
		<g>
			<g>
				<line fill="none" x1="204.817" y1="45.751" x2="204.817" y2="560.086"/>
				<path d="M204.817,585.802c-31.026,0-56.181-11.514-56.181-25.716V45.751c0-14.203,25.154-25.717,56.181-25.717
					c31.03,0,56.184,11.514,56.184,25.717v514.335C261,574.288,235.847,585.802,204.817,585.802z"/>
			</g>
			<g>
				<line fill="none" x1="397.281" y1="45.751" x2="397.281" y2="560.086"/>
				<path d="M397.281,585.802c-31.026,0-56.182-11.514-56.182-25.716V45.751c0-14.203,25.154-25.717,56.182-25.717
					c31.029,0,56.185,11.514,56.185,25.717v514.335C453.465,574.288,428.311,585.802,397.281,585.802z"/>
			</g>
			<g>
				<line fill="none" x1="397.281" y1="45.751" x2="397.281" y2="560.086"/>
				<path d="M397.281,585.802c-20.373,0-36.891-11.514-36.891-25.716V45.751c0-14.203,16.518-25.717,36.891-25.717
					c20.375,0,36.894,11.514,36.894,25.717v514.335C434.174,574.288,417.656,585.802,397.281,585.802z"/>
			</g>
		</g>
		
			<line fill="none" stroke="#000000" stroke-width="26" stroke-linecap="round" stroke-miterlimit="10" x1="-391.656" y1="173.241" x2="-391.656" y2="433.241"/>
	</g>
	<g id="Stop" display="inline">
		
			<rect x="-739" y="552" fill="none" stroke="#000000" stroke-width="26" stroke-linejoin="round" stroke-miterlimit="10" width="220" height="260"/>
		<g>
			<path d="M484.9,536.328H117.2c-12,0-21.729-9.268-21.729-20.697V101.697C95.473,90.266,105.2,81,117.201,81h367.699
				c12,0,21.729,9.266,21.729,20.697v413.934C506.628,527.063,496.9,536.328,484.9,536.328z M138.928,494.934h324.244v-372.54
				H138.928V494.934z"/>
		</g>
		<rect x="113" y="105" width="364" height="406"/>
	</g>
	<g id="Add" display="inline">
		<g>
			<g>
				<line fill="none" x1="301.049" y1="49.156" x2="301.049" y2="563.49"/>
				<path d="M301.05,589.208c-29.058-0.001-52.615-11.514-52.614-25.718V49.156c0-14.203,23.558-25.717,52.614-25.717
					c29.06,0,52.616,11.514,52.618,25.716V563.49C353.663,577.693,330.109,589.207,301.05,589.208z"/>
			</g>
		</g>
		<g>
			<g>
				<line fill="none" x1="45.871" y1="304.334" x2="560.204" y2="304.334"/>
				<path d="M585.923,304.334c-0.001,29.059-11.515,52.615-25.719,52.614l-514.333,0.001c-14.203,0-25.718-23.557-25.718-52.615
					c0-29.06,11.515-52.617,25.717-52.618h514.333C574.407,251.72,585.922,275.274,585.923,304.334z"/>
			</g>
		</g>
	</g>
	<g id="Clear" display="inline">
		<g>
			<g>
				<line fill="none" x1="482.895" y1="124.479" x2="119.206" y2="488.168"/>
				<path d="M101.021,506.353c-14.408-14.406-17.944-34.228-7.901-44.271L456.809,98.393c10.043-10.042,29.863-6.505,44.271,7.902
					c14.406,14.407,17.943,34.228,7.901,44.271L145.292,514.254C135.249,524.298,115.428,520.759,101.021,506.353z"/>
			</g>
			<g>
				<line fill="none" x1="119.206" y1="124.479" x2="482.895" y2="488.168"/>
				<path d="M501.079,506.353c-14.406,14.406-34.228,17.944-44.271,7.9L93.12,150.564c-10.043-10.043-6.505-29.863,7.9-44.27
					c14.407-14.407,34.229-17.945,44.271-7.902l363.688,363.689C519.023,472.125,515.486,491.945,501.079,506.353z"/>
			</g>
		</g>
		<g>
			<g>
				<line fill="none" x1="483.477" y1="123.072" x2="119.788" y2="486.762"/>
				<path d="M101.603,504.947C81.057,484.398,72.54,459.6,82.584,449.557L446.272,85.868c10.043-10.043,34.842-1.527,55.389,19.02
					c20.55,20.548,29.064,45.347,19.022,55.391L156.993,523.968C146.949,534.009,122.152,525.494,101.603,504.947z"/>
			</g>
		</g>
		<g>
			<g>
				<line fill="none" x1="122.6" y1="123.072" x2="486.288" y2="486.762"/>
				<path d="M504.475,504.946c-20.548,20.547-45.346,29.063-55.389,19.019L85.396,160.276
					c-10.043-10.043-1.526-34.841,19.021-55.389c20.549-20.548,45.347-29.064,55.391-19.022l363.688,363.688
					C533.535,459.601,525.022,484.397,504.475,504.946z"/>
			</g>
		</g>
	</g>
	<g id="Speaker" display="inline">
		<g>
			<g>
				<path fill="#FFFFFF" stroke="#FFFFFF" stroke-width="13" stroke-miterlimit="10" d="M359.619,73.592
					c-41.558,0-82.245,11.041-117.848,32.004c-31.757,18.731-58.676,44.782-78.399,75.795h-88.82
					c-36.099,0-65.375,29.276-65.375,65.375v118.468c0,36.098,29.276,65.375,65.375,65.375h88.82
					c19.724,31.012,46.643,57.063,78.399,75.793c35.603,20.966,76.29,32.006,117.848,32.006c9.306,0,16.748-7.442,16.748-16.747
					V90.338C376.367,81.159,368.925,73.592,359.619,73.592z M156.054,397.115H74.553c-17.616,0-31.882-14.266-31.882-31.881V246.766
					c0-17.615,14.266-31.881,31.882-31.881h81.501V397.115z M342.872,504.294c-62.894-5.334-120.204-40.688-153.325-95.021V202.853
					c33.122-54.334,90.433-89.689,153.325-95.023V504.294z"/>
				<path fill="#FFFFFF" stroke="#FFFFFF" stroke-width="13" stroke-miterlimit="10" d="M437.99,176.306
					c-7.566-5.334-17.986-3.474-23.32,4.217c-5.335,7.567-3.475,17.987,4.217,23.321c33.494,23.322,53.466,61.653,53.466,102.342
					s-19.972,79.019-53.466,102.34c-7.566,5.336-9.429,15.757-4.217,23.322c3.225,4.714,8.435,7.194,13.769,7.194
					c3.351,0,6.699-0.992,9.553-2.979c42.426-29.647,67.854-78.15,67.854-129.755S480.414,205.83,437.99,176.306z"/>
				<path fill="#FFFFFF" stroke="#FFFFFF" stroke-width="13" stroke-miterlimit="10" d="M498.743,106.961
					c-7.566-5.334-17.986-3.474-23.32,4.219c-5.334,7.566-3.475,17.987,4.217,23.321c56.194,39.2,89.688,103.334,89.688,171.562
					c0,68.227-33.494,132.484-89.688,171.562c-7.566,5.334-9.428,15.755-4.217,23.321c3.226,4.714,8.435,7.193,13.769,7.193
					c3.352,0,6.7-0.991,9.554-2.978c65.126-45.401,104.077-119.833,104.077-199.1C602.822,226.793,563.994,152.364,498.743,106.961z
					"/>
			</g>
		</g>
		<g>
			<g>
				<path fill="#FFFFFF" stroke="#FFFFFF" stroke-width="13" stroke-miterlimit="10" d="M359.619,73.592
					c-41.558,0-82.245,11.041-117.848,32.004c-31.757,18.731-58.676,44.782-78.399,75.795h-88.82
					c-36.099,0-65.375,29.276-65.375,65.375v118.468c0,36.098,29.276,65.375,65.375,65.375h88.82
					c19.724,31.012,46.643,57.063,78.399,75.793c35.603,20.966,76.29,32.006,117.848,32.006c9.306,0,16.748-7.442,16.748-16.747
					V90.338C376.367,81.159,368.925,73.592,359.619,73.592z M156.054,397.115H74.553c-17.616,0-31.882-14.266-31.882-31.881V246.766
					c0-17.615,14.266-31.881,31.882-31.881h81.501V397.115z M342.872,504.294c-62.894-5.334-120.204-40.688-153.325-95.021V202.853
					c33.122-54.334,90.433-89.689,153.325-95.023V504.294z"/>
				<path fill="#FFFFFF" stroke="#FFFFFF" stroke-width="13" stroke-miterlimit="10" d="M437.99,176.306
					c-7.566-5.334-17.986-3.474-23.32,4.217c-5.335,7.567-3.475,17.987,4.217,23.321c33.494,23.322,53.466,61.653,53.466,102.342
					s-19.972,79.019-53.466,102.34c-7.566,5.336-9.429,15.757-4.217,23.322c3.225,4.714,8.435,7.194,13.769,7.194
					c3.351,0,6.699-0.992,9.553-2.979c42.426-29.647,67.854-78.15,67.854-129.755S480.414,205.83,437.99,176.306z"/>
			</g>
		</g>
		<g>
			<g>
				<path fill="#FFFFFF" stroke="#FFFFFF" stroke-width="13" stroke-miterlimit="10" d="M359.619,73.592
					c-41.558,0-82.245,11.041-117.848,32.005c-31.757,18.731-58.676,44.782-78.399,75.795h-88.82
					c-36.099,0-65.375,29.276-65.375,65.375v118.467c0,36.098,29.276,65.375,65.375,65.375h88.82
					c19.724,31.012,46.643,57.063,78.399,75.793c35.603,20.966,76.29,32.006,117.848,32.006c9.306,0,16.748-7.442,16.748-16.747
					V90.339C376.367,81.159,368.925,73.592,359.619,73.592z M156.054,397.115H74.553c-17.616,0-31.882-14.266-31.882-31.881V246.767
					c0-17.616,14.266-31.881,31.882-31.881h81.501V397.115z M342.872,504.294c-62.894-5.334-120.204-40.688-153.325-95.021V202.853
					c33.122-54.334,90.433-89.689,153.325-95.023V504.294z"/>
			</g>
			<g>
				<g>
					
						<line fill="none" stroke="#FFFFFF" stroke-width="13" stroke-miterlimit="10" x1="554.635" y1="223.171" x2="421.882" y2="388.829"/>
					<path fill="#FFFFFF" stroke="#FFFFFF" stroke-width="13" stroke-miterlimit="10" d="M415.243,397.112
						c-5.258-6.563-6.549-15.591-2.884-20.165l132.752-165.658c3.666-4.575,10.9-2.962,16.159,3.6
						c5.26,6.562,6.551,15.59,2.884,20.165l-132.75,165.659C427.738,405.285,420.504,403.675,415.243,397.112z"/>
				</g>
				<g>
					
						<line fill="none" stroke="#FFFFFF" stroke-width="13" stroke-miterlimit="10" x1="421.882" y1="223.171" x2="554.635" y2="388.829"/>
					<path fill="#FFFFFF" stroke="#FFFFFF" stroke-width="13" stroke-miterlimit="10" d="M561.271,397.112
						c-5.258,6.563-12.493,8.173-16.159,3.6L412.361,235.053c-3.666-4.575-2.374-13.603,2.883-20.165
						c5.261-6.562,12.494-8.174,16.161-3.6l132.75,165.657C567.822,381.521,566.531,390.549,561.271,397.112z"/>
				</g>
			</g>
		</g>
	</g>
	<g id="Layer_8" display="inline">
		
			<ellipse fill="none" stroke="#000000" stroke-width="34" stroke-linecap="round" stroke-miterlimit="10" cx="-1221.355" cy="632.77" rx="225.165" ry="198.062"/>
		<path fill="none" stroke="#000000" stroke-width="34" stroke-linecap="round" stroke-miterlimit="10" d="M-393.782,632.77
			c0-109.385-100.81-198.061-225.165-198.061c-124.356,0-225.165,88.676-225.165,198.061"/>
		<g>
			<path d="M-738.969-314.243c0,0-93.009-30.003-171.017-102.01s-186.835-351.035-186.835-351.035L-738.969-314.243z"/>
			<path d="M-738.969-314.243c0,0-7.359-96.803-59.257-189.175c-51.896-92.373-298.596-263.871-298.596-263.871L-738.969-314.243z"
				/>
		</g>
		<g>
			<g>
				<g>
					<path d="M628.074,945.834c-14.465,0-26.189-11.725-26.189-26.189c0-91.395,37.737-178.269,103.537-238.345
						c10.679-9.753,27.246-8.999,36.999,1.683c9.753,10.683,9,27.246-1.683,37c-54.956,50.176-86.475,122.949-86.475,199.662
						C654.265,934.109,642.538,945.834,628.074,945.834z"/>
				</g>
				<g>
					<path fill="none" stroke="#000000" stroke-width="34" stroke-linecap="round" stroke-miterlimit="10" d="M723.079,700.641"/>
				</g>
				<g>
					<path d="M1178.811,945.834c-14.465,0-26.189-11.725-26.189-26.189c0-145.363-111.781-263.627-249.179-263.627
						c-18.732,0-37.396,2.205-55.474,6.556c-14.063,3.38-28.206-5.275-31.589-19.338c-3.384-14.063,5.272-28.205,19.337-31.591
						c22.084-5.313,44.87-8.006,67.726-8.006c80.805,0,156.697,33.041,213.701,93.035C1173.799,756.303,1205,835.488,1205,919.645
						C1205,934.109,1193.274,945.834,1178.811,945.834z"/>
				</g>
			</g>
			<g>
				<g>
					<path d="M947.196,952.361c-13.539,0-26.81-6.293-34.785-17.881l-87.974-127.836c-12.581-18.281-7.222-42.813,11.968-54.798
						c19.191-11.982,44.946-6.877,57.522,11.4l87.975,127.834c12.581,18.283,7.224,42.814-11.967,54.797
						C962.911,950.264,955.009,952.361,947.196,952.361z"/>
				</g>
				<path d="M784.87,677.761c0.036-0.386,0.384-0.601,0.769-0.479s3.739,1.414,4.484,1.704c0.746,0.292,3.423,1.447,3.905,1.656
					c0.481,0.21,2.277,1.009,2.809,1.26c0.53,0.251,6.417,3.238,11.799,6.031c5.379,2.795,27.249,17.674,34.02,22.857
					c6.771,5.186,29.696,27.502,36.183,34.675c6.484,7.172,24.165,31.116,26.871,35.22c2.706,4.104,11.112,18.588,13.386,22.824
					c2.269,4.24,10.306,22.318,13.607,30.75c3.306,8.438,10.334,34.953,11.648,42.096c1.313,7.146,2.865,22.886,2.922,24.052
					c0.06,1.164,0.104,4.647,0.111,5.559c0.003,0.908-0.076,3.787-0.127,4.861c-0.056,1.076-0.418,1.854-0.804,1.735
					c-0.388-0.12-3.75-1.405-4.5-1.696c-0.748-0.291-3.852-1.629-4.85-2.064c-0.996-0.434-8.314-4.067-13.707-6.854
					s-27.284-17.652-34.058-22.834c-6.774-5.183-27.066-24.478-30.354-27.943c-3.288-3.469-14.078-16.318-17.107-20.172
					c-3.03-3.857-14.832-21.199-20.038-29.533c-5.205-8.334-19.054-37.503-22.353-45.94c-3.299-8.439-10.345-34.944-11.667-42.083
					c-1.321-7.139-2.88-22.402-2.912-22.999c-0.03-0.598-0.117-2.521-0.129-3.062c-0.011-0.539-0.041-2.606-0.046-3.516
					C784.729,682.957,784.835,678.146,784.87,677.761z"/>
			</g>
		</g>
		<g>
			<path fill="none" stroke="#000000" stroke-width="43" stroke-linecap="round" stroke-miterlimit="10" d="M862.177-231.985
				c-29.481,35.232-48.126,87.22-48.126,145.206"/>
			<path fill="none" stroke="#000000" stroke-width="34" stroke-linecap="round" stroke-miterlimit="10" d="M891.736-265.857"/>
			<path fill="none" stroke="#000000" stroke-width="43" stroke-linecap="round" stroke-miterlimit="10" d="M1264.381-86.779
				c0-130.88-100.811-236.979-225.165-236.979c-17.316,0-34.177,2.057-50.369,5.952"/>
		</g>
		<g>
			
				<line fill="none" stroke="#000000" stroke-width="52" stroke-linecap="round" stroke-miterlimit="10" x1="996.579" y1="-194.979" x2="1051.636" y2="-110.996"/>
			<g>
				<path d="M950.075-265.396c0.022-0.253,0.238-0.395,0.48-0.315c0.24,0.08,2.34,0.928,2.807,1.12
					c0.467,0.192,2.143,0.951,2.443,1.089c0.301,0.138,1.426,0.662,1.758,0.827s4.016,2.127,7.383,3.963
					s17.053,11.611,21.291,15.017c4.236,3.406,18.583,18.067,22.644,22.779c4.059,4.712,15.123,20.443,16.815,23.139
					c1.693,2.695,6.955,12.211,8.375,14.996c1.421,2.785,6.45,14.659,8.519,20.2c2.066,5.542,6.468,22.962,7.29,27.655
					c0.821,4.693,1.793,15.036,1.829,15.801c0.035,0.765,0.064,3.054,0.066,3.651c0.002,0.597-0.045,2.488-0.079,3.194
					c-0.034,0.706-0.26,1.219-0.502,1.14c-0.241-0.079-2.347-0.924-2.814-1.114s-2.41-1.069-3.034-1.355
					c-0.624-0.286-5.203-2.673-8.578-4.504c-3.375-1.831-17.075-11.598-21.314-15.002c-4.238-3.404-16.938-16.08-18.995-18.358
					c-2.059-2.278-8.812-10.72-10.707-13.252c-1.896-2.532-9.281-13.927-12.539-19.402c-3.259-5.475-11.925-24.638-13.988-30.182
					s-6.474-22.957-7.301-27.646c-0.828-4.69-1.804-14.718-1.822-15.11c-0.021-0.392-0.075-1.656-0.082-2.01
					c-0.006-0.355-0.025-1.714-0.028-2.31C949.988-261.981,950.053-265.144,950.075-265.396z"/>
			</g>
		</g>
		<g>
			<g>
				<path d="M1207.354,485.846c-22.25,0-44.058-10.342-57.164-29.385l-144.573-210.082c-20.676-30.041-11.868-70.356,19.668-90.052
					c31.537-19.692,73.861-11.301,94.529,18.736l144.575,210.082c20.671,30.045,11.87,70.356-19.668,90.049
					C1233.182,482.398,1220.19,485.846,1207.354,485.846z"/>
			</g>
			<path d="M940.595,34.577c0.06-0.633,0.63-0.986,1.261-0.788c0.634,0.199,6.146,2.324,7.371,2.8
				c1.228,0.48,5.625,2.38,6.419,2.724c0.79,0.345,3.741,1.656,4.613,2.069s10.546,5.324,19.39,9.913
				c8.839,4.593,44.78,29.044,55.906,37.563c11.129,8.521,48.803,45.196,59.459,56.984c10.659,11.787,39.712,51.134,44.16,57.879
				c4.448,6.743,18.264,30.546,21.999,37.508c3.727,6.968,16.934,36.678,22.36,50.532c5.434,13.867,16.983,57.44,19.145,69.179
				c2.158,11.744,4.708,37.606,4.8,39.526c0.098,1.91,0.176,7.638,0.185,9.133c0.006,1.494-0.125,6.226-0.209,7.988
				c-0.09,1.771-0.686,3.049-1.316,2.855c-0.638-0.199-6.165-2.313-7.396-2.791s-6.332-2.677-7.973-3.394
				c-1.636-0.711-13.663-6.688-22.524-11.264c-8.862-4.58-44.838-29.01-55.969-37.525c-11.133-8.516-44.479-40.225-49.883-45.922
				c-5.403-5.699-23.137-26.817-28.117-33.149c-4.979-6.34-24.374-34.839-32.93-48.534c-8.555-13.697-31.311-61.632-36.731-75.5
				c-5.421-13.869-17-57.426-19.173-69.158c-2.172-11.729-4.734-36.815-4.785-37.796c-0.052-0.979-0.194-4.141-0.213-5.029
				c-0.018-0.886-0.065-4.285-0.074-5.777C940.36,43.117,940.534,35.211,940.595,34.577z"/>
		</g>
		
			<line fill="none" stroke="#000000" stroke-width="27" stroke-linecap="round" stroke-miterlimit="10" x1="-274.79" y1="218.149" x2="-141.563" y2="467.117"/>
		<path fill="none" stroke="#000000" stroke-width="29" stroke-linejoin="round" stroke-miterlimit="10" d="M-42.006,145.676
			c0-100.923-81.812-182.734-182.732-182.734c-100.923,0-182.736,81.812-182.736,182.734H-42.006z"/>
		<g>
			<g>
				
					<line fill="none" stroke="#000000" stroke-width="33" stroke-miterlimit="10" x1="-429.176" y1="-366.406" x2="-258.876" y2="-48.158"/>
				<path stroke="#000000" stroke-width="33" stroke-miterlimit="10" d="M-240.113,6.035c-6.838,0-13.455-3.671-16.906-10.123
					l-189.047-353.281c-4.992-9.329-1.477-20.937,7.852-25.928c9.329-4.992,20.938-1.476,25.929,7.852L-223.24-22.164
					c4.992,9.328,1.476,20.937-7.853,25.929C-233.969,5.305-237.063,6.035-240.113,6.035z"/>
			</g>
			
				<circle fill="#FFFFFF" stroke="#000000" stroke-width="28" stroke-linecap="round" stroke-miterlimit="10" cx="-242.869" cy="-15.865" r="45.413"/>
		</g>
		
			<circle stroke="#000000" stroke-width="43" stroke-linecap="round" stroke-linejoin="round" stroke-miterlimit="10" cx="99.925" cy="306" r="72.333"/>
		
			<circle stroke="#000000" stroke-width="43" stroke-linecap="round" stroke-linejoin="round" stroke-miterlimit="10" cx="306" cy="306" r="72.333"/>
		
			<circle stroke="#000000" stroke-width="43" stroke-linecap="round" stroke-linejoin="round" stroke-miterlimit="10" cx="512.074" cy="306" r="72.333"/>
	</g>
</g>
<image display="none" overflow="visible" enable-background="new    " width="450" height="470" xlink:href="9C9FB5B0.jpg"  transform="matrix(1.7021 0 0 1.7021 -63.9832 -48.9814)">
</image>
<image display="none" overflow="visible" enable-background="new    " width="102" height="68" xlink:href="9C9FB5B1.jpg"  transform="matrix(4.6674 0 0 7.0011 -1306.1746 1067.6104)">
</image>
<g display="none">
	<path display="inline" d="M-856.121,614.555c-58.454,2.944-104.905,49.186-104.905,105.799c0,56.614,46.451,102.854,104.905,105.8
		V614.555z"/>
	<path display="inline" d="M-527.878,614.555c58.455,2.944,104.903,49.186,104.903,105.799c0,56.614-46.448,102.854-104.903,105.8
		V614.555z"/>
	<path display="inline" d="M-692.007,390.568c116.37,0,210.838,93.987,212.06,210.393h45.633
		c0-142.184-115.369-257.445-257.685-257.445s-257.685,115.263-257.685,257.445h45.617
		C-902.844,484.557-808.379,390.568-692.007,390.568z"/>
	<polygon display="inline" points="-949.683,600.961 -949.683,702.778 -908.573,702.778 -908.573,651.87 	"/>
	<polygon display="inline" points="-904.066,600.961 -904.066,657.836 -949.683,661.165 -949.683,600.961 	"/>
	<rect x="-479.947" y="600.961" display="inline" width="45.633" height="90.997"/>
</g>
<path display="none" fill="#6BBD45" d="M-385.563-467.276c-142.313,0-257.683,115.699-257.683,258.42
	c0,142.722,115.369,258.42,257.683,258.42c142.316,0,257.687-115.698,257.687-258.42
	C-127.878-351.577-243.247-467.276-385.563-467.276z M-385.563-14.436c-107.068,0-193.866-87.045-193.866-194.42
	s86.797-194.42,193.866-194.42c107.07,0,193.867,87.045,193.867,194.42S-278.493-14.436-385.563-14.436z"/>
<g id="note_1_" display="none">
	<polygon display="inline" fill="#FFFFFF" points="815.698,413.908 815.698,45.895 1187.178,45.895 1187.178,375.17 
		1125.924,375.17 1125.924,191.163 874.979,191.163 874.979,336.432 874.979,428.436 	"/>
	<ellipse display="inline" fill="#FFFFFF" cx="779.322" cy="428.436" rx="95.834" ry="93.94"/>
	<ellipse display="inline" fill="#FFFFFF" cx="1091.345" cy="428.436" rx="95.833" ry="93.94"/>
	<polygon display="inline" fill="#FFFFFF" points="1187.178,373.17 1187.166,429.532 1125.529,421.342 1125.924,373.17 	"/>
</g>
<g id="hEAD" display="none">
	<path display="inline" fill="#FFFFFF" d="M305.998,122.86c125.39,0,200.7,84.734,200.7,221.748h101.07
		c0-182.114-135.104-329.748-301.771-329.748C139.336,14.86,4.232,162.493,4.232,344.607h101.072
		C105.304,207.595,180.613,122.86,305.998,122.86z"/>
	<path display="inline" fill="#FFFFFF" d="M415.518,312.855c107.125,3.877,192.251,64.764,192.251,139.313
		c0,74.547-85.126,135.436-192.251,139.314V312.855L415.518,312.855z"/>
	<path display="inline" fill="#FFFFFF" d="M196.484,597.141C89.359,593.264,4.232,532.377,4.232,457.826
		c0-74.547,85.127-135.434,192.252-139.313V597.141z"/>
	<polygon display="inline" fill="#FFFFFF" points="607.769,344.607 607.769,452.168 514.273,452.168 514.273,333.658 
		555.532,292.399 	"/>
	<polygon display="inline" fill="#FFFFFF" points="97.728,355.453 97.728,463.016 4.232,463.016 4.232,344.506 45.491,303.247 	"/>
</g>
<rect x="-254.333" y="43.333" display="none" fill="#FFFFFF" width="0" height="1.333"/>
<g display="none">
	<g display="inline">
		<rect x="81.755" y="68.193" fill="#FFFFFF" width="101.197" height="475.613"/>
	</g>
	<g display="inline">
		<rect x="93.858" y="364.146" width="76.992" height="70.049"/>
		<path d="M157.539,377.146v44.049h-50.371v-44.049H157.539 M184.16,351.146H80.548v96.049H184.16V351.146L184.16,351.146z"/>
	</g>
	<g display="inline">
		<rect x="429.048" y="68.193" fill="#FFFFFF" width="101.196" height="475.613"/>
	</g>
	<g display="inline">
		<rect x="441.151" y="260.764" width="76.99" height="70.048"/>
		<path d="M504.831,273.764v44.048H454.46v-44.048H504.831 M531.451,247.764H427.84v96.048h103.611V247.764L531.451,247.764z"/>
	</g>
	<g display="inline">
		<rect x="255.401" y="68.193" fill="#FFFFFF" width="101.196" height="475.613"/>
	</g>
	<g display="inline">
		<rect x="267.503" y="142.813" width="76.991" height="70.049"/>
		<path d="M331.185,155.813v44.049h-50.37v-44.049H331.185 M357.805,129.813H254.193v96.049h103.611L357.805,129.813
			L357.805,129.813z"/>
	</g>
</g>
<g display="none">
	<g display="inline">
		<line fill="none" stroke="#000000" stroke-width="27" stroke-miterlimit="10" x1="543.609" y1="63.763" x2="58.49" y2="548.884"/>
		<path fill="#DD2427" stroke="#000000" stroke-width="27" stroke-miterlimit="10" d="M34.234,573.14
			c-19.218-19.218-23.937-45.654-10.541-59.054l485.121-485.12c13.396-13.396,39.834-8.677,59.053,10.541
			c19.218,19.217,23.936,45.656,10.54,59.052L93.287,583.679C79.89,597.076,53.452,592.355,34.234,573.14z"/>
	</g>
	<g display="inline">
		<line fill="none" stroke="#000000" stroke-width="27" stroke-miterlimit="10" x1="58.49" y1="63.763" x2="543.609" y2="548.884"/>
		<path fill="#DD2427" stroke="#000000" stroke-width="27" stroke-miterlimit="10" d="M567.866,573.14
			c-19.218,19.217-45.654,23.937-59.052,10.538L23.695,98.558c-13.396-13.396-8.677-39.834,10.539-59.051
			C53.452,20.29,79.89,15.571,93.287,28.966l485.12,485.12C591.802,527.484,587.084,553.922,567.866,573.14z"/>
	</g>
</g>
<rect x="219.149" y="262.665" transform="matrix(-0.7071 0.7071 -0.7071 -0.7071 731.0214 309.0887)" display="none" width="164.695" height="86.558"/>
<g id="OLD_NOTE" display="none">
	<g display="inline">
		<path fill="#FFFFFF" stroke="#FFFFFF" stroke-miterlimit="10" d="M-231.667,136.615l0.167,94.699v145.27h-0.167v125.268h56
			V210.239C-206.935,196.875-229.565,173.424-231.667,136.615z"/>
		<ellipse fill="#FFFFFF" stroke="#FFFFFF" stroke-miterlimit="10" cx="-135.833" cy="136.615" rx="95.833" ry="82.053"/>
	</g>
	<path display="inline" fill="#FFFFFF" d="M197.991,550.07h58.342V158.458c-32.576-13.364-10.592-21.458-58.342-33.624l0.174,94.699
		v145.269"/>
	<g display="inline">
		<ellipse fill="#FFFFFF" cx="315.598" cy="124.834" rx="117.105" ry="57.048"/>
		<path fill="#FFFFFF" d="M315.6,182.382c-64.85,0-117.607-25.816-117.607-57.548S250.751,67.286,315.6,67.286
			c64.848,0,117.604,25.816,117.604,57.548S380.447,182.382,315.6,182.382z M315.6,68.286c-64.298,0-116.607,25.368-116.607,56.548
			s52.311,56.548,116.607,56.548c64.296,0,116.604-25.367,116.604-56.548S379.896,68.286,315.6,68.286z"/>
	</g>
	<g display="inline">
		
			<line fill="none" stroke="#FFFFFF" stroke-width="12" stroke-linecap="round" stroke-miterlimit="10" x1="44.333" y1="103.28" x2="565" y2="103.28"/>
		
			<line fill="none" stroke="#FFFFFF" stroke-width="12" stroke-linecap="round" stroke-miterlimit="10" x1="47" y1="238.427" x2="567.666" y2="238.427"/>
		
			<line fill="none" stroke="#FFFFFF" stroke-width="12" stroke-linecap="round" stroke-miterlimit="10" x1="47" y1="373.573" x2="567.666" y2="373.573"/>
		
			<line fill="none" stroke="#FFFFFF" stroke-width="12" stroke-linecap="round" stroke-miterlimit="10" x1="47" y1="508.72" x2="567.666" y2="508.72"/>
	</g>
	<rect x="55" y="174" display="inline" fill="#FFFFFF" width="492.666" height="22"/>
</g>
<g id="Layer_12" display="none">
</g>
<g id="Layer_13">
	<polygon display="none" fill="#FFFFFF" points="-155.334,45.334 -155.334,45.333 -282,212 -186,212 -186,520 -155.334,520 
		-124.667,520 -124.667,212 -28.667,212 	"/>
	<g id="h">
		<path fill="#FFFFFF" d="M310.564,13.792c-2.512-2.741-4.564-4.985-4.564-4.985s-2.055,2.244-4.566,4.985L119.389,212.525
			c-2.511,2.741-1.168,4.985,2.982,4.985h129.798c4.15,0,7.546,2.817,7.546,6.261v373.16c0,3.443,3.396,6.261,7.546,6.261h31.19
			c4.151,0,10.941,0,15.092,0h31.195c4.149,0,7.547-2.817,7.547-6.261v-373.16c0-3.444,3.396-6.261,7.545-6.261h129.798
			c4.151,0,5.492-2.244,2.98-4.985L310.564,13.792z"/>
	</g>
	<g id="l" display="none">
		<path display="inline" fill="#FFFFFF" d="M301.436,599.673c2.512,2.741,6.621,2.741,9.133,0L492.61,400.94
			c2.512-2.741,1.17-4.984-2.981-4.984H359.83c-4.15,0-7.546-2.817-7.546-6.261V16.533c0-3.443-3.396-6.261-7.547-6.261h-31.19
			c-4.149,0-10.941,0-15.092,0h-31.194c-4.15,0-7.546,2.817-7.546,6.261v373.161c0,3.443-3.396,6.26-7.546,6.26H122.371
			c-4.15,0-5.493,2.243-2.982,4.984L301.436,599.673z"/>
	</g>
	<g id="m" display="none">
		<path display="inline" fill="#FFFFFF" d="M16.502,262.262c-3.427,0-6.23,3.227-6.23,7.17v73.134c0,3.944,2.804,7.171,6.23,7.171
			h578.996c3.428,0,6.23-3.227,6.23-7.171v-73.134c0-3.943-2.803-7.17-6.23-7.17H16.502z"/>
	</g>
</g>
</svg>
